<?xml version="1.0" encoding="utf-8"?>
<svg height="15px" version="1.1" id="Layer_1" xmlns="http://www.w3.org/2000/svg" x="0px" y="0px" viewBox="0 0 122.88 122.88"
     fill='#f5fafa'
     xml:space="preserve"><g><path d="M84.74,41c2.69,2.91,2.52,7.46-0.39,10.15c-2.91,2.69-7.46,2.52-10.15-0.39c-3.43-3.71-7.77-5.41-12-5.44 c-2.05-0.01-4.12,0.38-6.08,1.13c-1.94,0.74-3.7,1.81-5.17,3.17c-2.97,2.75-4.94,6.79-4.97,11.84c-0.03,4.95,1.68,8.77,4.34,11.35 c1.38,1.34,3.04,2.37,4.88,3.09c1.91,0.74,3.95,1.13,6,1.15c4.61,0.03,9.4-1.76,13.12-5.59c2.77-2.85,7.33-2.91,10.18-0.14 c2.85,2.77,2.91,7.33,0.14,10.18c-6.6,6.81-15.19,9.98-23.49,9.93c-3.89-0.02-7.69-0.74-11.19-2.1c-3.57-1.39-6.87-3.47-9.67-6.19 c-5.32-5.16-8.74-12.5-8.68-21.72c0.06-9.37,3.85-17.01,9.6-22.32c2.89-2.68,6.23-4.74,9.79-6.1c3.53-1.36,7.36-2.06,11.27-2.03 C70.25,30.99,78.39,34.13,84.74,41L84.74,41z M61.44,0c16.97,0,32.33,6.88,43.44,18c11.12,11.12,18,26.48,18,43.44 c0,16.97-6.88,32.33-18,43.44c-11.12,11.12-26.48,18-43.44,18c-16.97,0-32.33-6.88-43.44-18C6.88,93.76,0,78.41,0,61.44 C0,44.47,6.88,29.11,18,18C29.11,6.88,44.47,0,61.44,0L61.44,0z M94.63,28.25C86.14,19.75,74.4,14.5,61.44,14.5 c-12.96,0-24.7,5.25-33.19,13.75S14.5,48.48,14.5,61.44c0,12.96,5.25,24.7,13.75,33.19s20.23,13.75,33.19,13.75 c12.96,0,24.7-5.25,33.19-13.75c8.49-8.49,13.75-20.23,13.75-33.19C108.38,48.48,103.13,36.74,94.63,28.25L94.63,28.25z"/></g>
</svg>